<?xml version="1.0" encoding="UTF-8" standalone="no"?>
<svg
   xmlns:osb="http://www.openswatchbook.org/uri/2009/osb"
   xmlns:dc="http://purl.org/dc/elements/1.1/"
   xmlns:cc="http://creativecommons.org/ns#"
   xmlns:rdf="http://www.w3.org/1999/02/22-rdf-syntax-ns#"
   xmlns:svg="http://www.w3.org/2000/svg"
   xmlns="http://www.w3.org/2000/svg"
   id="svg6"
   viewBox="0 0 100 100"
   x="0px"
   y="0px"
   version="1.1">
   <style type="text/css">
   <![CDATA[
    path {
      visibility: hidden;
    }

    #smoke-left,
    #smoke-middle,
    #smoke-right {
      animation-name: smoke;
      animation-duration: 2s;
      animation-timing-function: ease-in-out;
      animation-fill-mode: forwards;
      animation-delay: 2.5s;
    }

    @keyframes smoke {
      0% {
        visibility: visible;
        stroke-dasharray: .8, 16;
      }

      60% {
        visibility: visible;
        stroke-dasharray: 16, 16px;
      }

      100% {
        visibility: visible;
        stroke-dasharray: 16, 16px;
      }
    }

    #cup {
      animation-name: cup;
      animation-timing-function: ease-in-out;
      animation-fill-mode: forwards;
      animation-duration: 1s;
      animation-delay: 1s;
    }


    @keyframes cup {
      0% {
        visibility: visible;
        stroke-dasharray: 0, 219;
      }

      100% {
        visibility: visible;
        stroke-dasharray: 219, 219px;
      }
    }

    #plate {
      animation-name: plate;
      animation-timing-function: ease-in-out;
      animation-fill-mode: forwards;
      animation-duration: 1s;
      animation-delay: 0s;
    }

    @keyframes plate {
      0% {
        visibility: visible;
        stroke-dasharray: 0, 170;
      }

      100% {
        visibility: visible;
        stroke-dasharray: 170, 170px;
      }
    }
    ]]>
  </style>
  <metadata
     id="metadata12">
    <rdf:RDF>
      <cc:Work
         rdf:about="">
        <dc:format>image/svg+xml</dc:format>
        <dc:type
           rdf:resource="http://purl.org/dc/dcmitype/StillImage" />
        <dc:title></dc:title>
      </cc:Work>
    </rdf:RDF>
  </metadata>
  <defs
     id="defs10">
    <linearGradient
       osb:paint="gradient"
       id="linearGradient1043">
      <stop
         id="stop1039"
         offset="0"
         style="stop-color:#000000;stop-opacity:1;" />
      <stop
         id="stop1041"
         offset="1"
         style="stop-color:#000000;stop-opacity:0;" />
    </linearGradient>
    <linearGradient
       osb:paint="solid"
       id="linearGradient983">
      <stop
         id="stop981"
         offset="0"
         style="stop-color:#000000;stop-opacity:1;" />
    </linearGradient>
  </defs>
  <path
     id="smoke-left"
     d="m 29.817162,32.019454 c 0.679603,-0.447262 1.358955,-0.89436 1.922561,-1.380784 0.563605,-0.486424 1.011721,-1.012368 1.275511,-1.520727 0.26379,-0.508359 0.34328,-0.999803 0.297478,-1.527812 -0.0458,-0.528008 -0.217385,-1.09289 -0.449693,-1.781251 -0.232309,-0.688361 -0.525387,-1.500123 -0.654196,-2.256823 -0.12881,-0.756701 -0.09285,-1.457984 -0.0036,-1.978128 0.08922,-0.520145 0.231849,-0.858631 0.355788,-1.189706 0.123939,-0.331074 0.229163,-0.654812 0.485649,-1.158308 0.256486,-0.503496 0.664188,-1.186385 1.072077,-1.869588"
     style="fill:none;stroke:#000000;stroke-width:3;stroke-linecap:round;stroke-linejoin:miter;stroke-miterlimit:4;stroke-dasharray:none;stroke-opacity:1;paint-order:normal" />
  <path
     style="fill:none;stroke:#000000;stroke-width:3;stroke-linecap:round;stroke-linejoin:miter;stroke-miterlimit:4;stroke-dasharray:none;stroke-opacity:1;paint-order:normal"
     d="m 60.306675,31.264209 c 0.679603,-0.447262 1.358955,-0.89436 1.922561,-1.380784 0.563605,-0.486424 1.011721,-1.012368 1.275511,-1.520727 0.26379,-0.508359 0.34328,-0.999803 0.297478,-1.527812 -0.0458,-0.528008 -0.217385,-1.09289 -0.449693,-1.781251 -0.232309,-0.688361 -0.525387,-1.500123 -0.654196,-2.256823 -0.12881,-0.756701 -0.09285,-1.457984 -0.0036,-1.978128 0.08922,-0.520145 0.231849,-0.858631 0.355788,-1.189706 0.123939,-0.331074 0.229163,-0.654812 0.485649,-1.158308 0.256486,-0.503496 0.664188,-1.186385 1.072077,-1.869588"
     id="smoke-right" />
  <path
     style="fill:none;stroke:#000000;stroke-width:3;stroke-linecap:round;stroke-linejoin:miter;stroke-miterlimit:4;stroke-dasharray:none;stroke-opacity:1;paint-order:normal"
     d="m 45.723355,28.233661 c 0.679603,-0.447262 1.358955,-0.89436 1.922561,-1.380784 0.563605,-0.486424 1.011721,-1.012368 1.275511,-1.520727 0.26379,-0.508359 0.34328,-0.999803 0.297478,-1.527812 -0.0458,-0.528008 -0.217385,-1.09289 -0.449693,-1.781251 -0.232309,-0.688361 -0.525387,-1.500123 -0.654196,-2.256823 -0.12881,-0.756701 -0.09285,-1.457984 -0.0036,-1.978128 0.08922,-0.520145 0.231849,-0.858631 0.355788,-1.189706 0.123939,-0.331074 0.229163,-0.654812 0.485649,-1.158308 0.256486,-0.503496 0.664188,-1.186385 1.072077,-1.869588"
     id="smoke-middle" />
  <path
     id="plate"
     d="m 89.6834,78.580479 c -0.814953,0.0043 -53.02171,0.280613 -66.528835,0.22772 -13.5071262,-0.05289 -13.6020036,-0.302206 -13.6021622,0.07766 -1.587e-4,0.379863 0.09472,1.389008 0.4677852,2.356675 0.373066,0.967668 1.023658,1.893706 1.859652,2.719174 0.835993,0.825468 1.820971,1.525007 2.552933,1.928416 0.731962,0.403409 1.192799,0.498389 12.646332,0.533896 11.453532,0.03551 33.89898,0.01177 45.230133,-0.0477 11.331152,-0.05947 11.548014,-0.154451 12.185069,-0.439397 0.637054,-0.284947 1.694267,-0.759839 2.697033,-1.578929 1.002767,-0.819089 1.951548,-1.982573 2.480123,-2.872706 0.528576,-0.890133 0.605223,-1.326524 0.692871,-1.89443 0.08765,-0.567906 0.106909,-0.753484 0.134019,-1.014679 0,0 0,0 0,0 -2e-6,-5e-6 0,0 -0.814953,0.0043 z"
     style="fill:none;stroke:#000000;stroke-width:2.8;stroke-linecap:round;stroke-linejoin:round;stroke-miterlimit:4;stroke-dasharray:none;stroke-dashoffset:0;stroke-opacity:1;paint-order:normal" />
  <path
     id="cup"
     d="M 79.181362,46.831205 C 78.963947,45.299431 78.746373,43.766537 78.301856,42.85145 77.85734,41.936363 77.18486,41.639681 76.730704,41.490506 76.276548,41.341331 76.04094,41.340198 66.426435,41.381586 c -9.614505,0.04139 -28.607133,0.125302 -38.17746,0.168719 -9.570327,0.04342 -9.71795,0.04635 -9.895677,0.0626 -0.177727,0.01625 -0.385404,0.04592 -0.677486,0.19921 -0.292081,0.153289 -0.667879,0.430193 -0.976461,0.84507 -0.308581,0.414878 -0.542302,0.950487 -0.663267,2.287863 -0.120965,1.337375 -0.125748,3.467588 -0.08613,5.022276 0.03961,1.554688 0.123528,2.533689 0.442491,4.160253 0.318962,1.626564 0.872755,3.900484 1.634371,6.17481 0.761617,2.274327 1.730779,4.548891 3.367743,6.983332 1.636964,2.434442 3.941196,5.028763 6.09232,6.953791 2.151124,1.925028 4.148784,3.180983 5.187111,3.808606 1.038327,0.627623 1.11744,0.627623 5.787073,0.612786 4.669633,-0.01484 13.929416,-0.04451 18.598735,-0.07428 4.669319,-0.02977 4.748432,-0.05944 5.75167,-0.773117 1.003237,-0.713678 2.930887,-2.111381 4.75506,-3.65082 1.824173,-1.53944 3.54493,-3.220638 5.117292,-5.336865 1.572362,-2.116227 2.996437,-4.667694 4.027574,-7.060093 1.031138,-2.392398 1.658836,-4.589339 2.00484,-7.041834 0.346004,-2.452495 0.405773,-5.181962 0.49479,-6.596666 0.08902,-1.414704 0.20769,-1.533377 0.851053,-1.559719 0.643362,-0.02634 1.810313,0.03959 2.967472,0.221023 1.157159,0.181435 2.30433,0.478117 3.174466,1.002673 0.870137,0.524555 1.463501,1.27615 1.957443,1.981294 0.493942,0.705144 0.888601,1.363721 1.176571,2.336357 0.287971,0.972636 0.469787,2.259323 0.51163,3.538956 0.04184,1.279632 -0.05606,2.552335 -0.33585,3.684973 -0.279792,1.132638 -0.741321,2.125625 -1.461528,3.153409 -0.720207,1.027784 -1.699209,2.090699 -2.790004,3.034669 -1.090795,0.94397 -2.293569,1.769128 -3.71303,2.531343 -1.419461,0.762215 -3.055792,1.461501 -4.810872,1.937075 -1.755081,0.475573 -3.62917,0.727316 -5.504146,0.979178"
     style="fill:none;stroke:#000000;stroke-width:2.8;stroke-linecap:round;stroke-linejoin:miter;stroke-miterlimit:4;stroke-dasharray:none;stroke-opacity:1" />
</svg>
